<svg width="48" height="40" viewBox="0 0 48 40" fill="none" xmlns="http://www.w3.org/2000/svg">
<g clip-path="url(#clip0_2_24)">
<path d="M47.1769 11.675V28.325H39.3099V11.675H31.4492V28.325H23.5884V11.675L35.2635 0L47.1769 11.675Z" fill="#7ABDFF"/>
<path d="M47.1769 28.325L35.5019 40H27.6349L39.3099 28.325H47.1769Z" fill="#5CADFF"/>
<path d="M39.3099 11.675V28.325L27.6349 40L23.7139 36.0728L31.4492 28.325V11.675H39.3099Z" fill="#3399FF"/>
<path d="M35.2635 0L23.5884 11.675H15.7277L23.463 3.93977L27.4028 0H35.2635Z" fill="#D6EBFF"/>
<path d="M23.7139 36.0728L19.7742 40H11.9072L23.5885 28.325H31.4492L23.7139 36.0728Z" fill="#5CADFF"/>
<path d="M23.5885 11.675V28.325L11.9072 40L0 28.325V11.675H7.86073V28.325H15.7277V11.675H23.5885Z" fill="#B8DBFF"/>
<path d="M19.542 0L23.463 3.93977L15.7277 11.675V28.325H7.86072V11.675L19.542 0Z" fill="#3399FF"/>
<path d="M19.542 0L7.86073 11.675H0L11.675 0H19.542Z" fill="#D6EBFF"/>
</g>
<defs>
<clipPath id="clip0_2_24">
<rect width="47.1769" height="40" fill="white"/>
</clipPath>
</defs>
</svg>
